<svg width="75" height="75" viewBox="0 0 75 75" fill="none" xmlns="http://www.w3.org/2000/svg">
<path d="M37.4565 3.21504C37.8809 3.43573 38.2915 3.67359 38.7009 3.9188C38.8553 4.0083 39.0098 4.0978 39.1642 4.1873C39.4857 4.37121 39.8059 4.55757 40.1248 4.74515C40.8619 5.1755 41.6116 5.58868 42.3587 6.00308C42.6513 6.16615 42.9451 6.32921 43.2377 6.4935C43.3846 6.57442 43.5303 6.65657 43.6772 6.73871C51.5882 11.1525 51.5882 11.1525 51.8079 11.2751C51.9548 11.356 52.1005 11.4382 52.2474 11.5203C52.6116 11.7238 52.977 11.9274 53.3411 12.1309C54.0205 12.5097 54.7011 12.8886 55.3816 13.2674C55.6993 13.4452 56.017 13.6218 56.3347 13.7983C56.5557 13.9221 56.7767 14.0447 56.999 14.1686C57.3933 14.388 57.7863 14.6087 58.1806 14.8306C58.3012 14.8969 58.4217 14.9643 58.5473 15.0329C58.659 15.0955 58.7708 15.1592 58.8863 15.2242C58.983 15.2782 59.0809 15.3333 59.1814 15.3885C59.6322 15.7024 59.8344 16.0236 59.9386 16.5471C59.9486 16.7531 59.9537 16.9591 59.9524 17.165C59.9524 17.2877 59.9524 17.4103 59.9524 17.5365C59.9524 17.669 59.9511 17.8001 59.9511 17.9362C59.9499 18.1385 59.9499 18.1385 59.9499 18.3457C59.9499 18.7785 59.9474 19.2101 59.9461 19.6429C59.9461 19.9359 59.9449 20.229 59.9449 20.522C59.9436 21.2404 59.9411 21.9589 59.9386 22.6774C60.0365 22.6945 60.1345 22.7117 60.2362 22.7301C61.0913 22.9115 61.8523 23.6987 62.3244 24.3938C62.8493 25.409 62.9711 26.3948 62.9724 27.5178C62.9724 27.6184 62.9736 27.7189 62.9736 27.8231C62.9761 28.1517 62.9774 28.4815 62.9774 28.8113C62.9774 28.9241 62.9787 29.0369 62.9787 29.1534C62.9812 29.7517 62.9812 30.35 62.9824 30.9483C62.9824 31.5638 62.9862 32.1805 62.99 32.7972C62.9925 33.2729 62.9925 33.7474 62.9925 34.2231C62.9937 34.4499 62.9937 34.678 62.9962 34.9048C62.9975 35.2223 62.9975 35.5411 62.9975 35.8586C62.9975 35.9518 62.9987 36.045 63 36.1406C62.995 36.7671 62.8945 37.2085 62.5756 37.7578C62.1486 38.0962 61.8209 38.171 61.2772 38.1734C61.1466 38.1747 61.016 38.1747 60.8816 38.1759C60.741 38.1759 60.6016 38.1747 60.4572 38.1747C60.3115 38.1747 60.1671 38.1747 60.0177 38.1747C59.7113 38.1759 59.4049 38.1747 59.0985 38.1734C58.6302 38.171 58.1618 38.1734 57.6934 38.1759C57.3958 38.1759 57.0982 38.1747 56.7993 38.1747C56.5896 38.1759 56.5896 38.1759 56.3762 38.1759C55.6767 38.1697 55.1318 38.1636 54.5391 37.7578C54.2076 37.2723 54.2503 36.8505 54.2515 36.2865C54.2503 36.1737 54.249 36.0609 54.249 35.9445C54.2465 35.5705 54.2452 35.1966 54.2452 34.8226C54.2452 34.5615 54.244 34.3016 54.2427 34.0404C54.2415 33.4936 54.2415 32.9468 54.2415 32.4012C54.2415 31.7023 54.2377 31.0035 54.2339 30.3046C54.2302 29.7664 54.2302 29.2282 54.2302 28.6899C54.2302 28.4325 54.2289 28.175 54.2264 27.9175C54.2239 27.5558 54.2251 27.1954 54.2264 26.8337C54.2251 26.7282 54.2239 26.6228 54.2226 26.5149C54.2339 25.4666 54.5792 24.5238 55.3076 23.7428C55.3942 23.6472 55.4796 23.5515 55.5675 23.4522C55.9203 23.1678 55.9203 23.1678 57.176 22.5548C57.2175 21.341 57.2589 20.1272 57.3016 18.8766C56.2757 19.4492 56.2757 19.4492 55.2485 20.0217C54.5089 20.4337 53.7693 20.8469 53.0297 21.2588C52.7082 21.4378 52.3855 21.6168 52.0641 21.7971C51.9096 21.8829 51.7552 21.9687 51.6007 22.0545C51.3835 22.1747 51.1675 22.2948 50.9515 22.415C50.8285 22.4837 50.7054 22.5523 50.5798 22.6234C50.3463 22.7558 50.1177 22.8981 49.893 23.0452C49.8365 23.4253 49.8365 23.4253 49.8465 23.8801C49.8465 23.9672 49.8452 24.053 49.8452 24.1413C49.844 24.3276 49.844 24.5152 49.8452 24.7016C49.8465 24.9983 49.8452 25.295 49.8427 25.5917C49.8377 26.434 49.8377 27.2775 49.8377 28.1198C49.8377 28.6348 49.8352 29.1509 49.8314 29.6659C49.8302 29.9577 49.8314 30.2482 49.8339 30.54C49.8327 30.7203 49.8314 30.8993 49.8302 31.0795C49.8302 31.2364 49.8302 31.3921 49.8302 31.554C49.7373 32.2026 49.4823 32.666 48.9713 33.1049C48.8633 33.1736 48.7553 33.241 48.6448 33.3097C48.523 33.3882 48.4024 33.4654 48.2769 33.5451C48.1475 33.6248 48.0169 33.7057 47.8838 33.7878C47.6817 33.9166 47.6817 33.9166 47.4745 34.0478C47.1982 34.2219 46.922 34.396 46.6457 34.5688C46.2941 34.7883 45.9438 35.009 45.5959 35.2321C45.1904 35.4908 44.7835 35.7483 44.3767 36.0058C43.7965 36.3724 43.2176 36.7426 42.6388 37.1129C42.0436 37.4917 41.4483 37.8706 40.8519 38.2482C40.7502 38.312 40.6497 38.3757 40.5455 38.4419C40.2743 38.6136 40.0018 38.784 39.7293 38.9532C39.6527 39.001 39.5774 39.0501 39.4982 39.0991C38.1747 39.9144 36.7872 40.1498 35.2364 39.912C33.7157 39.5196 32.3797 38.4738 31.0813 37.6352C30.9205 37.5322 30.7598 37.4292 30.6003 37.3262C30.3567 37.1693 30.1131 37.0136 29.8708 36.8567C29.2555 36.4606 28.6389 36.0683 28.0211 35.676C27.672 35.454 27.3229 35.2309 26.9738 35.0078C26.4979 34.7037 26.0183 34.4033 25.5386 34.1042C25.2987 33.9534 25.0576 33.8013 24.8178 33.6505C24.6521 33.5488 24.6521 33.5488 24.4838 33.4458C24.3293 33.3477 24.3293 33.3477 24.1724 33.2484C24.0832 33.192 23.9941 33.1368 23.9024 33.0792C23.4177 32.6464 23.1691 32.1866 23.095 31.5601C23.1013 31.4069 23.1063 31.2536 23.1113 31.0954C23.1138 31.0096 23.1163 30.925 23.1176 30.8367C23.1226 30.6528 23.1289 30.4689 23.1352 30.2838C23.1452 29.992 23.1502 29.7002 23.154 29.4072C23.164 28.5759 23.1766 27.7446 23.208 26.9146C23.3938 24.758 23.3938 24.758 22.83 22.746C22.3503 22.2948 21.7966 22.0901 21.165 21.9074C20.7393 21.7725 20.399 21.5592 20.0185 21.3299C19.7435 21.1767 19.4672 21.0222 19.191 20.8689C19.0416 20.7856 18.8921 20.701 18.7415 20.6176C17.9905 20.1995 17.2384 19.7839 16.4812 19.3756C16.3405 19.2996 16.1987 19.2224 16.0542 19.1439C15.788 19.0004 15.5231 18.8582 15.2569 18.716C13.3746 17.6996 13.3746 17.6996 13.0142 16.9836C12.9677 16.4576 13.0242 16.1045 13.352 15.6889C14.1694 15.0464 15.1426 14.583 16.0593 14.095C16.3631 13.932 16.6658 13.7689 16.9697 13.6046C17.045 13.5641 17.1216 13.5225 17.1994 13.4808C17.9378 13.0798 18.6674 12.6654 19.3944 12.2486C20.409 11.6662 21.4287 11.0973 22.4558 10.5395C23.488 9.97794 24.5127 9.4066 25.5323 8.823C26.5507 8.23817 27.5766 7.66683 28.6088 7.10653C29.651 6.54009 30.687 5.96262 31.7166 5.37412C31.8397 5.30423 31.964 5.23435 32.0908 5.16201C32.7049 4.81259 33.3164 4.45826 33.9229 4.09657C34.1552 3.96048 34.3875 3.82439 34.6198 3.6883C34.7755 3.59389 34.7755 3.59389 34.9338 3.49581C35.7939 2.99926 36.5097 2.82148 37.4565 3.21504ZM35.5754 6.19557C35.4511 6.26423 35.3268 6.33289 35.1987 6.40278C35.0644 6.47879 34.9312 6.55358 34.7931 6.63082C34.5834 6.7473 34.5834 6.7473 34.3699 6.86622C33.3039 7.45841 32.244 8.06285 31.1855 8.66852C30.1608 9.2558 29.1261 9.82223 28.0877 10.3862C27.1886 10.8766 26.2958 11.3781 25.4067 11.8881C24.3971 12.4656 23.3838 13.0333 22.3616 13.5887C21.2591 14.1894 20.1579 14.7926 19.0604 15.4032C18.9022 15.4903 18.744 15.5785 18.587 15.6656C18.366 15.787 18.1475 15.9096 17.9278 16.031C17.8022 16.1021 17.6754 16.1719 17.546 16.2431C17.2359 16.4135 17.2359 16.4135 16.9935 16.6697C17.0802 16.7163 17.1668 16.7629 17.2572 16.8107C18.9411 17.718 20.6187 18.6351 22.2763 19.5877C23.1678 20.0965 24.0644 20.5931 24.9672 21.0835C26.1262 21.7125 27.274 22.3586 28.4179 23.0145C29.312 23.5258 30.2136 24.0236 31.1202 24.5165C35.1912 26.7282 35.1912 26.7282 36.0162 27.3118C36.3238 27.4958 36.3238 27.4958 36.644 27.3805C36.7482 27.3253 36.8525 27.2702 36.9592 27.2138C37.1137 27.1353 37.1137 27.1353 37.2706 27.0556C37.3799 26.9955 37.4891 26.9354 37.6009 26.8741C37.7867 26.7724 37.7867 26.7724 37.9776 26.6694C38.1094 26.5958 38.2425 26.5223 38.3794 26.4475C38.5188 26.3715 38.6582 26.2942 38.8013 26.2158C39.8662 25.6297 40.9235 25.0289 41.9783 24.4245C43.0042 23.8384 44.0389 23.272 45.0761 22.708C46.102 22.1489 47.1153 21.5739 48.1274 20.994C49.1948 20.3834 50.2722 19.7925 51.3533 19.2077C52.0515 18.83 52.7422 18.4475 53.4089 18.0184C53.4089 17.9779 53.4089 17.9375 53.4089 17.8958C51.6861 17.8676 49.9645 17.8455 48.2417 17.832C47.4418 17.8259 46.6419 17.8173 45.8421 17.8026C45.0698 17.7891 44.2988 17.7818 43.5265 17.7793C43.2315 17.7768 42.9376 17.7719 42.6425 17.7658C42.2307 17.7572 41.8188 17.756 41.4057 17.756C41.2839 17.7523 41.162 17.7474 41.0365 17.7425C40.6824 17.7486 40.4275 17.7646 40.0985 17.8958C39.8448 18.1876 39.6766 18.472 39.507 18.8165C39.1366 19.5129 38.4384 19.9322 37.7126 20.2253C36.7043 20.5257 35.647 20.3932 34.6989 19.9801C33.8739 19.5375 33.1707 18.8558 32.8757 17.9644C32.6685 16.8782 32.6383 15.7011 33.2323 14.7301C33.884 13.9013 34.6299 13.2858 35.7035 13.1142C36.8487 12.994 37.7968 13.1473 38.7498 13.7983C39.3463 14.2752 39.5635 14.621 39.9729 15.3211C44.4068 15.3211 48.8407 15.3211 53.4089 15.3211C53.0511 14.9716 52.7685 14.7914 52.329 14.5585C52.1884 14.4824 52.0465 14.4064 51.9021 14.3292C51.828 14.29 51.7539 14.2507 51.6773 14.209C51.288 14.0031 50.9013 13.7946 50.5133 13.5862C50.4379 13.5445 50.3613 13.5028 50.2822 13.4611C49.6958 13.1448 49.1169 12.8199 48.5431 12.4852C47.7507 12.0254 46.9521 11.5779 46.1497 11.1366C45.0635 10.5407 43.9811 9.93993 42.8999 9.33671C42.8271 9.29503 42.7543 9.25457 42.6802 9.21288C42.3085 9.00568 41.9356 8.79725 41.5639 8.59005C40.8469 8.18913 40.1286 7.78944 39.4116 7.38852C39.0474 7.185 38.682 6.98147 38.3179 6.77917C38.1898 6.70806 38.0617 6.63695 37.9299 6.56339C37.7227 6.44691 37.5155 6.32799 37.3108 6.20661C36.6315 5.80569 36.256 5.81795 35.5754 6.19557ZM35.4524 16.0567C35.2577 16.4368 35.2904 16.7408 35.3268 17.1601C35.5038 17.5267 35.5038 17.5267 35.8291 17.7732C36.3251 17.9142 36.5863 17.9485 37.0609 17.7425C37.3623 17.5292 37.3623 17.5292 37.5871 17.1601C37.6461 16.644 37.6448 16.389 37.351 15.9488C37.0358 15.6411 36.9215 15.5761 36.4808 15.5283C35.9885 15.5749 35.8027 15.7244 35.4524 16.0567ZM25.6579 24.3938C25.5901 25.3048 25.5449 26.2145 25.5135 27.1279C25.4997 27.4381 25.4821 27.7471 25.4582 28.0561C25.2824 29.7738 25.2824 29.7738 25.9015 31.3161C26.5243 31.8544 27.23 32.2259 27.9759 32.5777C28.3765 32.7702 28.7281 32.997 29.096 33.2447C29.312 33.382 29.5292 33.5206 29.7464 33.6579C29.9248 33.7707 29.9248 33.7707 30.1056 33.8859C30.6932 34.2599 31.2822 34.6326 31.8711 35.0053C31.9803 35.0752 32.0896 35.1439 32.2026 35.2162C32.4148 35.3498 32.6258 35.4847 32.838 35.6183C33.2813 35.8991 33.7233 36.1811 34.159 36.4717C34.2908 36.5599 34.4214 36.6482 34.557 36.7389C34.6663 36.8125 34.7743 36.8861 34.886 36.9621C35.5378 37.3397 36.2058 37.4966 36.9592 37.39C37.9324 37.0798 38.7687 36.4913 39.6113 35.942C39.7557 35.8488 39.9001 35.7557 40.0445 35.6625C40.3383 35.4724 40.6321 35.2824 40.926 35.0924C41.5639 34.6792 42.2043 34.2721 42.8447 33.8651C43.0795 33.7155 43.3143 33.5659 43.5491 33.4164C44.02 33.1172 44.4909 32.818 44.9631 32.5201C45.0773 32.4465 45.1929 32.3742 45.3122 32.2994C45.5294 32.1621 45.7466 32.0248 45.9639 31.8875C46.0606 31.8262 46.1572 31.7649 46.2564 31.7023C46.3406 31.6484 46.4247 31.5957 46.5113 31.5405C46.5917 31.489 46.6708 31.4363 46.7537 31.3823C46.8403 31.3321 46.927 31.2806 47.0161 31.2291C47.2836 31.0317 47.2836 31.0317 47.3163 30.719C47.315 30.6013 47.3137 30.4849 47.3125 30.3647C47.3125 30.2323 47.3125 30.0999 47.3125 29.9626C47.31 29.8203 47.3075 29.6769 47.305 29.5298C47.3037 29.3103 47.3037 29.3103 47.3024 29.0859C47.2999 28.6176 47.2937 28.1492 47.2874 27.6809C47.2849 27.3633 47.2824 27.0458 47.2798 26.7295C47.2748 25.9509 47.266 25.1724 47.256 24.3938C46.2552 24.91 45.2569 25.4262 44.2812 25.9877C44.079 26.103 43.8781 26.217 43.676 26.3322C43.5127 26.4254 43.5127 26.4254 43.3457 26.5198C42.4918 27.0029 41.6317 27.4798 40.7728 27.9567C40.0934 28.3356 39.4141 28.7157 38.7411 29.1056C38.6331 29.1681 38.5238 29.2318 38.4121 29.2956C38.2137 29.4108 38.0165 29.5261 37.8206 29.6426C37.3284 29.927 36.9165 30.1502 36.3314 30.1563C36.0074 30.0533 35.75 29.943 35.4524 29.7885C35.3406 29.7308 35.2288 29.672 35.1133 29.6131C34.704 29.3961 34.2971 29.1754 33.8903 28.9535C33.7396 28.8702 33.5876 28.788 33.437 28.7059C32.3407 28.1088 31.2558 27.4945 30.1746 26.8741C27.9433 25.5843 27.9433 25.5843 25.6579 24.3938ZM57.0944 25.7633C56.8822 26.1974 56.8747 26.575 56.8822 27.0458C56.8822 27.139 56.8822 27.2309 56.8822 27.3253C56.8822 27.6282 56.8847 27.9322 56.8885 28.2351C56.8885 28.4459 56.8897 28.6568 56.8897 28.8677C56.891 29.4207 56.8948 29.9748 56.8985 30.529C56.9023 31.0942 56.9048 31.6594 56.9061 32.2246C56.9098 33.333 56.9174 34.4426 56.9249 35.5509C58.0437 35.5509 59.1626 35.5509 60.3153 35.5509C60.3203 34.396 60.3253 33.2423 60.3279 32.0873C60.3291 31.5515 60.3316 31.0157 60.3341 30.48C60.3367 29.9626 60.3379 29.4452 60.3392 28.9278C60.3392 28.7304 60.3404 28.533 60.3417 28.3356C60.3429 28.0585 60.3442 27.7826 60.3442 27.5056C60.3442 27.2689 60.3442 27.2689 60.3454 27.0286C60.294 26.293 60.0805 25.7879 59.5619 25.2521C59.1789 24.9713 58.7821 24.9554 58.3099 24.9676C57.7675 25.051 57.4171 25.3477 57.0944 25.7633Z" fill="#5C5C5C" stroke="#5C5C5C"/>
<path d="M68.1684 41.9148C69.1109 42.6647 69.794 43.6063 69.9611 44.8052C70.0808 46.1449 69.9623 47.3972 69.0623 48.4784C68.3803 49.2004 67.6847 49.9066 66.9728 50.6007C66.7996 50.7694 66.7996 50.7694 66.6238 50.9429C66.2473 51.3118 65.8696 51.6807 65.4918 52.0496C65.3597 52.1782 65.2288 52.3068 65.0979 52.4355C64.4795 53.0385 63.8624 53.6416 63.2441 54.2435C62.536 54.934 61.8291 55.6256 61.1235 56.3173C60.5737 56.8561 60.0227 57.3936 59.4717 57.9312C59.1438 58.2504 58.8172 58.5695 58.4906 58.8898C56.8711 60.4819 55.2567 62.0643 53.1823 63.0933C53.095 63.137 53.0077 63.1806 52.9192 63.2255C52.2847 63.5338 51.6389 63.7874 50.9695 64.0106C50.8872 64.0386 50.8049 64.0653 50.7201 64.0944C48.9598 64.6392 47.2282 64.7509 45.3969 64.7496C45.1662 64.7509 44.9356 64.7521 44.705 64.7533C44.2263 64.7545 43.7475 64.7545 43.2701 64.7545C42.6567 64.7533 42.0446 64.7569 41.4325 64.7618C40.9575 64.7654 40.4838 64.7654 40.0101 64.7654C39.7844 64.7654 39.5588 64.7666 39.3319 64.7691C39.0177 64.7715 38.7035 64.7703 38.3881 64.7678C38.2959 64.7691 38.2036 64.7715 38.1076 64.7727C37.6165 64.7654 37.407 64.7084 37.0193 64.4038C36.7426 64.0592 36.6802 63.9111 36.6865 63.4792C36.6852 63.3796 36.684 63.2789 36.6815 63.1758C36.8024 62.7353 37.0305 62.5557 37.3883 62.2657C37.7735 62.1905 37.7735 62.1905 38.2111 62.1905C38.3757 62.188 38.5402 62.1868 38.7098 62.1856C38.8893 62.1868 39.0676 62.188 39.2471 62.1892C39.4341 62.188 39.6198 62.1868 39.8056 62.1856C40.298 62.182 40.7892 62.182 41.2804 62.182C42.1531 62.1832 43.0257 62.1795 43.8984 62.1735C44.038 62.1735 44.038 62.1735 44.1814 62.1723C49.4273 62.1419 52.822 60.6057 56.5283 57.0029C56.6954 56.8415 56.6954 56.8415 56.8662 56.6765C57.1679 56.3841 57.4695 56.0916 57.77 55.7992C57.9582 55.6159 58.1477 55.4327 58.336 55.2495C58.9281 54.6755 59.5203 54.1003 60.1112 53.5251C60.7907 52.8638 61.4713 52.2037 62.1533 51.5436C62.6831 51.0315 63.2117 50.5182 63.739 50.0037C64.0532 49.6979 64.3686 49.3921 64.684 49.0875C65.0343 48.749 65.3846 48.408 65.7337 48.067C65.8371 47.9663 65.9419 47.8668 66.0491 47.7636C66.6861 47.1387 67.2359 46.5781 67.2384 45.6498C67.2147 45.0224 67.0826 44.6827 66.6849 44.1851C66.1688 43.7471 65.6614 43.6451 64.9894 43.6354C64.1691 43.8126 63.5458 44.3829 62.9374 44.9132C62.7716 45.0552 62.607 45.1972 62.4412 45.3379C62.359 45.4095 62.2767 45.4811 62.1907 45.5539C61.8229 45.8706 61.4489 46.1813 61.0749 46.4907C60.4703 46.9943 59.8681 47.5003 59.2672 48.0075C58.3048 48.8206 57.3386 49.6275 56.3712 50.432C55.5472 51.1188 54.7256 51.8069 53.9066 52.4973C52.1002 54.0227 52.1002 54.0227 51.2263 54.7422C51.1103 54.8381 50.9944 54.934 50.8747 55.0323C49.5595 56.0904 48.4163 56.4787 46.7171 56.4775C46.58 56.4775 46.4428 56.4787 46.3007 56.4799C45.8482 56.4811 45.3944 56.4823 44.9418 56.4823C44.6264 56.4836 44.3098 56.4836 43.9944 56.4848C43.3337 56.486 42.6729 56.4872 42.0122 56.4872C41.2505 56.486 40.4875 56.4896 39.7246 56.4933C38.989 56.4969 38.2535 56.4969 37.518 56.4969C37.2063 56.4969 36.8934 56.4981 36.5817 56.5005C36.1454 56.503 35.7091 56.5018 35.2727 56.5005C35.1443 56.5018 35.0159 56.503 34.8825 56.5042C34.1433 56.4981 33.7119 56.4387 33.1497 55.9557C32.9502 55.5686 32.9776 55.1645 33.025 54.7422C33.2344 54.2751 33.4165 54.0821 33.8977 53.8928C34.1719 53.8625 34.1719 53.8625 34.4761 53.8625C34.6494 53.8625 34.6494 53.8625 34.8264 53.8613C35.0159 53.8613 35.0159 53.8613 35.2079 53.8625C35.3413 53.8625 35.4759 53.8613 35.6131 53.8613C35.9023 53.8601 36.1928 53.8601 36.482 53.8601C36.942 53.8601 37.4008 53.8588 37.8596 53.8564C39.1648 53.8516 40.4701 53.8479 41.7753 53.8467C42.5732 53.8467 43.3723 53.8431 44.1702 53.8394C44.4743 53.8382 44.7785 53.8382 45.0827 53.8382C45.5078 53.8394 45.9342 53.837 46.3593 53.8346C46.5475 53.8358 46.5475 53.8358 46.7383 53.837C47.6072 53.8273 48.3265 53.6768 48.9623 53.0665C49.0072 52.9961 49.0521 52.9269 49.0995 52.8541C49.1468 52.7837 49.1942 52.7133 49.2428 52.6417C49.5757 52.0423 49.5483 51.4004 49.4809 50.7378C49.264 50.091 48.8015 49.6615 48.2343 49.2817C47.5922 49.0608 47.0113 49.0099 46.3369 49.0281C46.1324 49.0305 45.928 49.0341 45.7235 49.0365C45.6163 49.039 45.5091 49.0414 45.3981 49.0438C44.8197 49.0535 44.2425 49.0548 43.664 49.0584C42.9322 49.062 42.2017 49.0693 41.4699 49.0851C36.3873 49.1907 36.3873 49.1907 34.0448 47.4166C32.7794 46.5016 31.1712 46.106 29.659 45.7626C29.5306 45.7335 29.4022 45.7032 29.2701 45.6716C25.9851 45.0479 22.5905 45.5697 19.7717 47.3183C19.6608 47.3972 19.5511 47.4773 19.4376 47.5586C19.0624 47.8255 19.0624 47.8255 18.6984 48.0354C18.1673 48.3946 17.7771 48.715 17.6125 49.3314C17.4841 50.233 17.5153 51.1431 17.529 52.052C17.529 52.3457 17.529 52.6405 17.5265 52.9354C17.5253 53.7084 17.5315 54.4813 17.539 55.2543C17.5452 56.0443 17.544 56.8342 17.544 57.6242C17.544 59.1714 17.5514 60.7185 17.5664 62.2657C17.6886 62.2645 17.8095 62.2633 17.9354 62.262C19.0861 62.2499 20.2355 62.2402 21.3862 62.2354C21.9771 62.2317 22.5693 62.2269 23.1602 62.2208C23.7311 62.2135 24.3009 62.2099 24.8718 62.2087C25.09 62.2074 25.3069 62.205 25.5251 62.2026C25.8305 62.1977 26.1347 62.1965 26.4401 62.1977C26.5748 62.1941 26.5748 62.1941 26.7119 62.1905C27.1981 62.1953 27.3988 62.2536 27.7815 62.5545C28.0608 62.9003 28.1231 63.0472 28.1157 63.4792C28.1181 63.5799 28.1194 63.6794 28.1206 63.7825C27.9985 64.2303 27.7828 64.405 27.415 64.6926C27.0597 64.7509 26.7792 64.7715 26.4252 64.763C26.2781 64.7642 26.2781 64.7642 26.1285 64.7642C25.9165 64.7642 25.7059 64.7642 25.4939 64.7618C25.1586 64.7581 24.8245 64.7581 24.4891 64.7594C23.7785 64.7606 23.0679 64.7581 22.3586 64.7533C21.5345 64.7496 20.7105 64.7472 19.8864 64.7496C19.5561 64.7496 19.227 64.746 18.8966 64.7424C18.6946 64.7436 18.4927 64.7436 18.2907 64.7436C18.1985 64.7424 18.1075 64.7399 18.0127 64.7375C17.7235 64.7351 17.7235 64.7351 17.3171 64.814C17.0254 65.0955 17.0254 65.0955 16.8184 65.4207C16.0131 66.0687 14.9783 65.9813 13.9897 65.9801C13.8127 65.9801 13.6357 65.9813 13.4574 65.9825C13.0872 65.9849 12.7156 65.9849 12.3454 65.9837C11.8729 65.9813 11.4004 65.9862 10.9279 65.991C10.5614 65.9947 10.1949 65.9959 9.82838 65.9947C9.65509 65.9947 9.48056 65.9959 9.30602 65.9983C8.34609 66.0104 7.61929 65.9716 6.82517 65.4183C5.96248 64.5179 6.02356 63.6126 6.02855 62.4453C6.0273 62.2536 6.02606 62.0618 6.02481 61.8689C6.02107 61.3495 6.02107 60.829 6.02107 60.3096C6.02232 59.8752 6.02107 59.4395 6.01983 59.0051C6.01733 57.9785 6.01608 56.9519 6.01858 55.9266C6.01982 54.8697 6.01608 53.8127 6.0111 52.7546C6.00736 51.8457 6.00486 50.9368 6.00611 50.0279C6.00611 49.4855 6.00611 48.9431 6.00237 48.4007C5.99988 47.891 5.99988 47.3814 6.00362 46.8705C6.00362 46.6836 6.00362 46.498 6.00112 46.3111C5.9899 45.2311 6.0485 44.3975 6.84511 43.5784C7.63674 42.9195 8.56426 43.019 9.56284 43.0202C9.7436 43.0202 9.92437 43.019 10.1051 43.0178C10.4816 43.0154 10.8594 43.0154 11.2371 43.0166C11.7183 43.019 12.1995 43.0141 12.6807 43.0081C13.0522 43.0057 13.425 43.0044 13.7977 43.0057C13.9748 43.0057 14.153 43.0044 14.3301 43.002C15.4321 42.9887 16.2474 43.0554 17.0677 43.8211C17.5327 44.3611 17.5851 44.8283 17.5664 45.5199C17.6537 45.4653 17.6537 45.4653 17.7422 45.4095C21.6018 42.9996 25.8492 42.2448 30.3771 43.1549C32.1012 43.5274 34.1146 44.048 35.4984 45.1583C37.4893 46.6885 39.8305 46.4349 42.2341 46.3912C42.9198 46.3791 43.6054 46.3779 44.2898 46.3754C44.8234 46.373 45.3557 46.3706 45.8881 46.3609C47.1771 46.3439 48.3527 46.3681 49.5196 46.9615C49.7004 47.0513 49.7004 47.0513 49.8849 47.1423C50.962 47.7624 51.6975 48.7393 52.0989 49.8884C52.0989 50.0486 52.0989 50.2088 52.0989 50.3738C53.085 49.6263 54.0288 48.8339 54.9712 48.033C55.3664 47.6981 55.7616 47.3644 56.1581 47.0295C56.2354 46.964 56.3126 46.8996 56.3924 46.8317C57.1305 46.2092 57.8722 45.5903 58.614 44.9727C58.9045 44.7312 59.1949 44.4885 59.4854 44.247C59.63 44.1257 59.7759 44.0043 59.9205 43.8842C60.292 43.576 60.6585 43.2653 61.0213 42.9462C63.0858 41.1466 65.685 40.171 68.1684 41.9148ZM8.59044 45.5199C8.59044 51.4465 8.59044 57.373 8.59044 63.4792C10.7297 63.4792 12.869 63.4792 15.0731 63.4792C15.0731 57.5526 15.0731 51.6261 15.0731 45.5199C12.9338 45.5199 10.7945 45.5199 8.59044 45.5199Z" fill="#5C5C5C" stroke="#5C5C5C"/>
</svg>
